<svg width="45" height="45" viewBox="0 0 45 45" fill="none" xmlns="http://www.w3.org/2000/svg">
<circle opacity="0.2" cx="22.5" cy="22.5" r="22.5" transform="matrix(-1 0 0 1 45 0)" fill="white"/>
<path d="M18.6665 22.5318L24.0066 17.1917C24.1301 17.0681 24.295 17 24.4708 17C24.6466 17 24.8115 17.0681 24.935 17.1917L25.3283 17.5849C25.5842 17.8411 25.5842 18.2575 25.3283 18.5133L20.844 22.9975L25.3332 27.4867C25.4568 27.6104 25.5249 27.7751 25.5249 27.9508C25.5249 28.1267 25.4568 28.2915 25.3332 28.4152L24.94 28.8083C24.8164 28.9319 24.6516 29 24.4758 29C24.3 29 24.1351 28.9319 24.0116 28.8083L18.6665 23.4634C18.5427 23.3394 18.4747 23.1738 18.4751 22.9978C18.4747 22.8211 18.5427 22.6557 18.6665 22.5318Z" fill="white"/>
</svg>
